<svg width="28" height="27" viewBox="0 0 28 27" fill="none" xmlns="http://www.w3.org/2000/svg">
<g id="angle-arrow-down_icon-icons.com_73683 4">
<g id="Group">
<path id="Vector" d="M27.7202 7.25011L26.3175 5.89759C26.1306 5.71698 25.9153 5.62695 25.6719 5.62695C25.4291 5.62695 25.2138 5.71698 25.0269 5.89759L14.0001 16.53L2.97385 5.89787C2.78684 5.71726 2.57163 5.62724 2.32851 5.62724C2.08529 5.62724 1.87008 5.71726 1.68317 5.89787L0.280659 7.25048C0.0933566 7.43072 0 7.63824 0 7.87278C0 8.10712 0.0936514 8.31464 0.280659 8.49488L13.3548 21.1024C13.5417 21.2827 13.757 21.3728 14.0001 21.3728C14.2433 21.3728 14.4582 21.2827 14.645 21.1024L27.7202 8.49488C27.9071 8.31455 28 8.10702 28 7.87278C28 7.63824 27.9071 7.43072 27.7202 7.25011Z" fill="white"/>
</g>
</g>
</svg>
