<svg viewBox="0 0 19 12" fill="none" xmlns="http://www.w3.org/2000/svg">
<path id="Vector" d="M16.4663 1.52C15.2277 0.559986 13.7415 0.0800058 12.1727 0L11.925 0.240017C13.3286 0.559986 14.5672 1.19998 15.7231 2.07999C14.3195 1.35999 12.7507 0.88001 11.0993 0.719998C10.6039 0.639992 10.191 0.639992 9.69562 0.639992C9.20022 0.639992 8.78735 0.639992 8.29196 0.719998C6.64057 0.88001 5.07176 1.35999 3.66809 2.07999C4.82403 1.19998 6.0626 0.559986 7.46626 0.240017L7.21854 0C5.64972 0.0800058 4.16349 0.559986 2.92497 1.52C1.52131 4.08002 0.778187 6.96002 0.695618 9.91996C1.93413 11.2 3.66809 12 5.48463 12C5.48463 12 6.0626 11.36 6.47542 10.8C5.40206 10.56 4.41121 9.99996 3.75067 9.12001C4.32864 9.43998 4.9066 9.76 5.48463 9.99996C6.22775 10.32 6.97087 10.48 7.71399 10.64C8.37453 10.72 9.03507 10.8 9.69562 10.8C10.3562 10.8 11.0167 10.72 11.6772 10.64C12.4204 10.48 13.1635 10.32 13.9066 9.99996C14.4846 9.76 15.0626 9.43998 15.6406 9.12001C14.98 9.99996 13.9892 10.56 12.9158 10.8C13.3286 11.36 13.9066 12 13.9066 12C15.7231 12 17.4571 11.2 18.6956 9.91996C18.613 6.96002 17.8699 4.08002 16.4663 1.52ZM6.97087 8.47996C6.14517 8.47996 5.40206 7.75996 5.40206 6.88001C5.40206 6 6.14517 5.28 6.97087 5.28C7.79656 5.28 8.53968 6 8.53968 6.88001C8.53968 7.75996 7.79656 8.47996 6.97087 8.47996ZM12.4204 8.47996C11.5947 8.47996 10.8516 7.75996 10.8516 6.88001C10.8516 6 11.5947 5.28 12.4204 5.28C13.2461 5.28 13.9892 6 13.9892 6.88001C13.9892 7.75996 13.2461 8.47996 12.4204 8.47996Z" fill="white" fill-opacity="0.75"/>
</svg>
