<svg width="25" height="35" viewBox="0 0 25 35" fill="none" xmlns="http://www.w3.org/2000/svg">
<path d="M24.7502 6.71317L23.4978 5.46084C23.3309 5.2936 23.1387 5.21025 22.9213 5.21025C22.7045 5.21025 22.5124 5.2936 22.3455 5.46084L12.5001 15.3057L2.65522 5.4611C2.48825 5.29387 2.2961 5.21051 2.07903 5.21051C1.86187 5.21051 1.66971 5.29387 1.50283 5.4611L0.250589 6.71352C0.0833541 6.8804 0 7.07256 0 7.28972C0 7.5067 0.0836173 7.69885 0.250589 7.86574L11.9239 19.5393C12.0908 19.7063 12.2831 19.7898 12.5001 19.7898C12.7172 19.7898 12.9091 19.7063 13.0759 19.5393L24.7502 7.86574C24.9171 7.69877 25 7.50661 25 7.28972C25 7.07256 24.9171 6.8804 24.7502 6.71317Z" fill="white"/>
<path d="M24.7502 16.7132L23.4978 15.4609C23.3309 15.2936 23.1387 15.2103 22.9213 15.2103C22.7045 15.2103 22.5124 15.2936 22.3455 15.4609L12.5001 25.3057L2.65522 15.4611C2.48825 15.2939 2.2961 15.2105 2.07903 15.2105C1.86187 15.2105 1.66971 15.2939 1.50283 15.4611L0.250589 16.7135C0.0833541 16.8804 0 17.0726 0 17.2897C0 17.5067 0.0836173 17.6989 0.250589 17.8658L11.9239 29.5394C12.0908 29.7063 12.2831 29.7898 12.5001 29.7898C12.7172 29.7898 12.9091 29.7063 13.0759 29.5394L24.7502 17.8658C24.9171 17.6988 25 17.5066 25 17.2897C25 17.0726 24.9171 16.8804 24.7502 16.7132Z" fill="white"/>
</svg>
