<svg viewBox="0 0 17 16" fill="none" xmlns="http://www.w3.org/2000/svg">
<path id="Vector" d="M8.70187 3.96056C6.43044 3.96056 4.5983 5.76407 4.5983 8.00001C4.5983 10.2359 6.43044 12.0395 8.70187 12.0395C10.9733 12.0395 12.8054 10.2359 12.8054 8.00001C12.8054 5.76407 10.9733 3.96056 8.70187 3.96056ZM8.70187 10.6262C7.23401 10.6262 6.03401 9.44845 6.03401 8.00001C6.03401 6.55157 7.23044 5.37384 8.70187 5.37384C10.1733 5.37384 11.3697 6.55157 11.3697 8.00001C11.3697 9.44845 10.1697 10.6262 8.70187 10.6262ZM13.9304 3.79532C13.9304 4.31915 13.5019 4.73751 12.9733 4.73751C12.4412 4.73751 12.0162 4.31564 12.0162 3.79532C12.0162 3.27501 12.4447 2.85314 12.9733 2.85314C13.5019 2.85314 13.9304 3.27501 13.9304 3.79532ZM16.6483 4.75157C16.5876 3.48947 16.2947 2.3715 15.3554 1.4504C14.4197 0.529309 13.284 0.241028 12.0019 0.177747C10.6804 0.103918 6.71972 0.103918 5.3983 0.177747C4.11972 0.237512 2.98401 0.525793 2.04472 1.44689C1.10544 2.36798 0.816153 3.48595 0.751868 4.74806C0.676868 6.04884 0.676868 9.94767 0.751868 11.2484C0.812582 12.5106 1.10544 13.6285 2.04472 14.5496C2.98401 15.4707 4.11615 15.759 5.3983 15.8223C6.71972 15.8961 10.6804 15.8961 12.0019 15.8223C13.284 15.7625 14.4197 15.4742 15.3554 14.5496C16.2912 13.6285 16.584 12.5106 16.6483 11.2484C16.7233 9.94767 16.7233 6.05236 16.6483 4.75157ZM14.9412 12.6442C14.6626 13.3332 14.1233 13.8641 13.4197 14.1418C12.3662 14.5531 9.86615 14.4582 8.70187 14.4582C7.53758 14.4582 5.03401 14.5496 3.98401 14.1418C3.28401 13.8676 2.74472 13.3367 2.46258 12.6442C2.04472 11.607 2.14115 9.14611 2.14115 8.00001C2.14115 6.85392 2.0483 4.38947 2.46258 3.35587C2.74115 2.66681 3.28044 2.13595 3.98401 1.85822C5.03758 1.44689 7.53758 1.54181 8.70187 1.54181C9.86615 1.54181 12.3697 1.4504 13.4197 1.85822C14.1197 2.13243 14.659 2.66329 14.9412 3.35587C15.359 4.39298 15.2626 6.85392 15.2626 8.00001C15.2626 9.14611 15.359 11.6106 14.9412 12.6442Z" fill="white" fill-opacity="0.75"/>
</svg>
