<svg width="48" height="48" viewBox="0 0 48 48" fill="none" xmlns="http://www.w3.org/2000/svg">
<g id="instagram 1" clip-path="url(#clip0_113_186)">
<path id="Vector" d="M12.1718 47.8301C10.3152 47.8094 8.47601 47.4689 6.73506 46.8235C5.46374 46.3536 4.31351 45.6055 3.36847 44.6339C2.39424 43.6907 1.64503 42.5402 1.17647 41.2678C0.531648 39.5269 0.191615 37.6879 0.171294 35.8315C0.0287059 32.7454 0 31.8198 0 24C0 16.1802 0.0315294 15.2579 0.169882 12.1694C0.192669 10.3138 0.533121 8.47575 1.17647 6.73506C1.64731 5.46353 2.39546 4.31284 3.36659 3.36659C4.31046 2.39324 5.46123 1.64472 6.73365 1.17647C8.4746 0.531114 10.3137 0.190602 12.1704 0.169882C15.2574 0.0287059 16.1845 0 24 0C31.8155 0 32.7421 0.0315294 35.8306 0.169882C37.6867 0.192508 39.5252 0.532963 41.2664 1.17647C42.5382 1.64533 43.6887 2.39359 44.6329 3.36612C45.6058 4.3107 46.3543 5.46146 46.8235 6.73365C47.469 8.47457 47.8097 10.3137 47.8306 12.1704C47.9718 15.2588 48.0005 16.1835 48.0005 24.0009C48.0005 31.8184 47.9718 32.7431 47.8306 35.8315C47.8082 37.6879 47.4676 39.5266 46.8235 41.2678C46.3364 42.5304 45.5902 43.6771 44.6331 44.634C43.676 45.5908 42.5291 46.3367 41.2664 46.8235C39.5254 47.469 37.6863 47.8097 35.8296 47.8306C32.744 47.9718 31.8165 48.0005 23.9991 48.0005C16.1816 48.0005 15.2569 47.9732 12.1713 47.8306" fill="url(#paint0_radial_113_186)"/>
<path id="Vector_2" d="M12.1718 47.8301C10.3152 47.8094 8.47601 47.4689 6.73506 46.8235C5.46374 46.3536 4.31351 45.6055 3.36847 44.6339C2.39424 43.6907 1.64503 42.5402 1.17647 41.2678C0.531648 39.5269 0.191615 37.6879 0.171294 35.8315C0.0287059 32.7454 0 31.8198 0 24C0 16.1802 0.0315294 15.2579 0.169882 12.1694C0.192669 10.3138 0.533121 8.47575 1.17647 6.73506C1.64731 5.46353 2.39546 4.31284 3.36659 3.36659C4.31046 2.39324 5.46123 1.64472 6.73365 1.17647C8.4746 0.531114 10.3137 0.190602 12.1704 0.169882C15.2574 0.0287059 16.1845 0 24 0C31.8155 0 32.7421 0.0315294 35.8306 0.169882C37.6867 0.192508 39.5252 0.532963 41.2664 1.17647C42.5382 1.64533 43.6887 2.39359 44.6329 3.36612C45.6058 4.3107 46.3543 5.46146 46.8235 6.73365C47.469 8.47457 47.8097 10.3137 47.8306 12.1704C47.9718 15.2588 48.0005 16.1835 48.0005 24.0009C48.0005 31.8184 47.9718 32.7431 47.8306 35.8315C47.8082 37.6879 47.4676 39.5266 46.8235 41.2678C46.3364 42.5304 45.5902 43.6771 44.6331 44.634C43.676 45.5908 42.5291 46.3367 41.2664 46.8235C39.5254 47.469 37.6863 47.8097 35.8296 47.8306C32.744 47.9718 31.8165 48.0005 23.9991 48.0005C16.1816 48.0005 15.2569 47.9732 12.1713 47.8306" fill="url(#paint1_radial_113_186)"/>
<path id="Vector_3" d="M18.1067 24.1021C18.1068 22.9265 18.4555 21.7773 19.1088 20.7998C19.762 19.8224 20.6904 19.0606 21.7766 18.6108C22.8628 18.161 24.0579 18.0434 25.211 18.2729C26.364 18.5024 27.4231 19.0686 28.2542 19.9C29.0854 20.7314 29.6514 21.7907 29.8806 22.9437C30.1098 24.0968 29.992 25.2919 29.5419 26.378C29.0919 27.4641 28.3299 28.3923 27.3523 29.0453C26.3747 29.6983 25.2254 30.0468 24.0498 30.0466C22.4734 30.0463 20.9617 29.4199 19.8472 28.3051C18.7326 27.1903 18.1066 25.6785 18.1067 24.1021ZM14.8931 24.1021C14.8931 25.9131 15.4301 27.6835 16.4362 29.1893C17.4424 30.6951 18.8725 31.8688 20.5457 32.5618C22.2188 33.2549 24.0599 33.4362 25.8362 33.0829C27.6124 32.7296 29.244 31.8575 30.5245 30.5769C31.8051 29.2963 32.6772 27.6647 33.0305 25.8885C33.3838 24.1123 33.2025 22.2712 32.5095 20.598C31.8164 18.9248 30.6428 17.4947 29.137 16.4886C27.6311 15.4824 25.8608 14.9454 24.0498 14.9454C22.8473 14.9453 21.6566 15.1822 20.5456 15.6423C19.4346 16.1024 18.4252 16.7769 17.5749 17.6272C16.7246 18.4775 16.0501 19.487 15.59 20.5979C15.1298 21.7089 14.893 22.8996 14.8931 24.1021ZM31.4291 14.5826C31.4289 15.0058 31.5542 15.4195 31.7892 15.7715C32.0241 16.1235 32.3582 16.3979 32.7491 16.5601C33.14 16.7222 33.5702 16.7647 33.9853 16.6824C34.4005 16.6 34.7818 16.3964 35.0812 16.0972C35.3806 15.7981 35.5845 15.4169 35.6673 15.0019C35.75 14.5869 35.7079 14.1566 35.5461 13.7655C35.3843 13.3745 35.1102 13.0402 34.7584 12.8049C34.4066 12.5696 33.993 12.444 33.5698 12.4438C33.0025 12.444 32.4585 12.6694 32.0573 13.0704C31.6561 13.4715 31.4305 14.0153 31.43 14.5826M16.8465 38.6174C15.7157 38.605 14.5955 38.398 13.5349 38.0057C12.7658 37.7092 12.0673 37.255 11.4843 36.6722C10.9013 36.0895 10.4468 35.3911 10.15 34.6221C9.75743 33.5616 9.55048 32.4414 9.53824 31.3106C9.45166 29.4311 9.43471 28.8664 9.43471 24.1045C9.43471 19.3426 9.45354 18.7793 9.53824 16.8979C9.55196 15.7672 9.75886 14.6473 10.15 13.5863C10.4464 12.817 10.9008 12.1183 11.4838 11.5352C12.0668 10.9522 12.7656 10.4978 13.5349 10.2014C14.5955 9.80884 15.7157 9.6019 16.8465 9.58965C18.726 9.50306 19.2907 9.48612 24.0507 9.48612C28.8107 9.48612 29.3759 9.50448 31.2573 9.59012C32.3879 9.60384 33.5079 9.81074 34.5688 10.2019C35.3382 10.4983 36.0369 10.9527 36.6199 11.5357C37.2029 12.1188 37.6573 12.8175 37.9538 13.5868C38.3463 14.6473 38.5533 15.7676 38.5655 16.8984C38.6521 18.7807 38.6691 19.3426 38.6691 24.1049C38.6691 28.8673 38.6516 29.4301 38.5655 31.3115C38.5524 32.4422 38.3454 33.5623 37.9538 34.6231C37.657 35.3921 37.2025 36.0904 36.6195 36.6732C36.0365 37.2559 35.338 37.7101 34.5688 38.0066C33.5083 38.3991 32.3881 38.6061 31.2573 38.6184C29.3778 38.7049 28.8131 38.7219 24.0507 38.7219C19.2884 38.7219 18.7255 38.7045 16.8465 38.6184M16.6987 6.37883C15.2191 6.40792 13.7552 6.68797 12.3693 7.20705C11.1846 7.66511 10.1087 8.36568 9.21054 9.26382C8.31239 10.162 7.61182 11.2379 7.15377 12.4226C6.63475 13.8085 6.3547 15.2724 6.32554 16.752C6.23754 18.6532 6.21777 19.2612 6.21777 24.104C6.21777 28.9468 6.23801 29.5544 6.32554 31.456C6.35469 32.9356 6.63474 34.3995 7.15377 35.7854C7.61185 36.9701 8.31242 38.046 9.21056 38.9441C10.1087 39.8423 11.1846 40.5429 12.3693 41.0009C13.7552 41.5198 15.2191 41.7998 16.6987 41.8292C18.6008 41.9158 19.2079 41.9369 24.0507 41.9369C28.8935 41.9369 29.5011 41.9167 31.4027 41.8292C32.8823 41.8 34.3462 41.5199 35.7321 41.0009C36.9168 40.5429 37.9927 39.8423 38.8909 38.9441C39.789 38.046 40.4896 36.9701 40.9477 35.7854C41.4674 34.3997 41.7474 32.9357 41.7759 31.456C41.8625 29.5534 41.8822 28.9468 41.8822 24.104C41.8822 19.2612 41.862 18.6537 41.7759 16.752C41.7468 15.2724 41.4667 13.8085 40.9477 12.4226C40.4896 11.2381 39.7892 10.1624 38.8913 9.26424C37.9935 8.36612 36.9179 7.66543 35.7335 7.20705C34.3478 6.68763 32.8838 6.40757 31.4041 6.37883C29.5025 6.29177 28.8949 6.27106 24.0531 6.27106C19.2112 6.27106 18.6022 6.2913 16.6996 6.37883" fill="white"/>
</g>
<defs>
<radialGradient id="paint0_radial_113_186" cx="0" cy="0" r="1" gradientUnits="userSpaceOnUse" gradientTransform="translate(3.10635 46.9487) scale(60.9421)">
<stop offset="0.09" stop-color="#FA8F21"/>
<stop offset="0.78" stop-color="#D82D7E"/>
</radialGradient>
<radialGradient id="paint1_radial_113_186" cx="0" cy="0" r="1" gradientUnits="userSpaceOnUse" gradientTransform="translate(33.248 45.4071) scale(53.6296)">
<stop offset="0.64" stop-color="#8C3AAA" stop-opacity="0"/>
<stop offset="1" stop-color="#8C3AAA"/>
</radialGradient>
<clipPath id="clip0_113_186">
<rect width="48" height="48" fill="white"/>
</clipPath>
</defs>
</svg>
