<svg width="76" height="76" viewBox="0 0 76 76" fill="none" xmlns="http://www.w3.org/2000/svg">
<g clip-path="url(#clip0_48_117)">
<path d="M26.6 36.2L42.7 20.1C43.5 19.3 44.7 19.3 45.5 20.1C46.3 20.9 46.3 22.1 45.5 22.9L30.8 37.6L46.3 53.1C47.1 53.9 47.1 55.1 46.3 55.9C45.5 56.7 44.3 56.7 43.5 55.9L26.6 39C25.8 38.2 25.8 37 26.6 36.2ZM0 38C0 17 17 0 38 0C59 0 76 17 76 38C76 59 59 76 38 76C17 76 0 59 0 38ZM4 38C4 56.8 19.2 72 38 72C56.8 72 72 56.8 72 38C72 19.2 56.8 4 38 4C19.2 4 4 19.2 4 38Z" fill="#3B345E"/>
</g>
<defs>
<clipPath id="clip0_48_117">
<rect width="76" height="76" fill="white" transform="matrix(-1 0 0 -1 76 76)"/>
</clipPath>
</defs>
</svg>
