<svg width="76" height="76" viewBox="0 0 76 76" fill="none" xmlns="http://www.w3.org/2000/svg">
<g clip-path="url(#clip0_48_99)">
<path d="M49.4 39.8L33.3 55.9C32.5 56.7 31.3 56.7 30.5 55.9C29.7 55.1 29.7 53.9 30.5 53.1L45.2 38.4L29.7 22.9C28.9 22.1 28.9 20.9 29.7 20.1C30.5 19.3 31.7 19.3 32.5 20.1L49.4 37C50.2 37.8 50.2 39 49.4 39.8ZM76 38C76 59 59 76 38 76C17 76 0 59 0 38C0 17 17 0 38 0C59 0 76 17 76 38ZM72 38C72 19.2 56.8 4 38 4C19.2 4 4 19.2 4 38C4 56.8 19.2 72 38 72C56.8 72 72 56.8 72 38Z" fill="#3B345E"/>
</g>
<defs>
<clipPath id="clip0_48_99">
<rect width="76" height="76" fill="white"/>
</clipPath>
</defs>
</svg>
