<svg viewBox="0 0 18 18" fill="none" xmlns="http://www.w3.org/2000/svg">
<g id="twitter">
<g id="Subtract">
<path fill-rule="evenodd" clip-rule="evenodd" d="M16.6956 9.00001C16.6956 13.3507 13.1159 16.8777 8.70007 16.8777C4.28426 16.8777 0.704529 13.3507 0.704529 9.00001C0.704529 4.64931 4.28426 1.12238 8.70007 1.12238C13.1159 1.12238 16.6956 4.64931 16.6956 9.00001ZM16.3173 8.96752C16.3173 13.094 12.9008 16.4391 8.68632 16.4391C4.47186 16.4391 1.05536 13.094 1.05536 8.96752C1.05536 4.84108 4.47186 1.49593 8.68632 1.49593C12.9008 1.49593 16.3173 4.84108 16.3173 8.96752Z" fill="white" fill-opacity="0.75"/>
<path d="M8.70007 17.3777C13.385 17.3777 17.1956 13.6338 17.1956 9.00001H16.1956C16.1956 13.0676 12.8468 16.3777 8.70007 16.3777V17.3777ZM0.204529 9.00001C0.204529 13.6338 4.01514 17.3777 8.70007 17.3777V16.3777C4.55337 16.3777 1.20453 13.0676 1.20453 9.00001H0.204529ZM8.70007 0.622375C4.01514 0.622375 0.204529 4.36619 0.204529 9.00001H1.20453C1.20453 4.93243 4.55337 1.62238 8.70007 1.62238V0.622375ZM17.1956 9.00001C17.1956 4.36619 13.385 0.622375 8.70007 0.622375V1.62238C12.8468 1.62238 16.1956 4.93243 16.1956 9.00001H17.1956ZM8.68632 16.9391C13.1669 16.9391 16.8173 13.38 16.8173 8.96752H15.8173C15.8173 12.8079 12.6346 15.9391 8.68632 15.9391V16.9391ZM0.555359 8.96752C0.555359 13.38 4.20571 16.9391 8.68632 16.9391V15.9391C4.738 15.9391 1.55536 12.8079 1.55536 8.96752H0.555359ZM8.68632 0.995934C4.20571 0.995934 0.555359 4.55504 0.555359 8.96752H1.55536C1.55536 5.12711 4.738 1.99593 8.68632 1.99593V0.995934ZM16.8173 8.96752C16.8173 4.55504 13.1669 0.995934 8.68632 0.995934V1.99593C12.6346 1.99593 15.8173 5.12711 15.8173 8.96752H16.8173Z" fill="white"/>
</g>
<g id="layer1">
<path id="path1009" d="M3.88627 4.48456L7.70804 9.51919L3.86218 13.6126H4.7278L8.09492 10.0287L10.8154 13.6126H13.7609L9.724 8.29482L13.3037 4.48456H12.4381L9.33729 7.78517L6.8318 4.48456H3.88627ZM5.1592 5.1127H6.51236L12.4878 12.9844H11.1346L5.1592 5.1127Z" fill="white" fill-opacity="0.75"/>
</g>
</g>
</svg>
