<svg width="48" height="48" viewBox="0 0 48 48" fill="none" xmlns="http://www.w3.org/2000/svg">
<g id="twitter_x_new_logo_x_rounded_icon_256078 1" clip-path="url(#clip0_113_225)">
<g id="Group">
<path id="Vector" d="M24 48C37.2548 48 48 37.2548 48 24C48 10.7452 37.2548 0 24 0C10.7452 0 0 10.7452 0 24C0 37.2548 10.7452 48 24 48Z" fill="black" stroke="white" stroke-miterlimit="10"/>
<g id="layer1">
<path id="path1009" d="M9.21585 10.0951L20.6876 25.4336L9.14355 37.9046H11.7419L21.8489 26.9858L30.0147 37.9046H38.8562L26.7388 21.7035L37.484 10.0951H34.8857L25.578 20.1508L18.0574 10.0951H9.21585ZM13.0368 12.0088H17.0985L35.0348 35.9909H30.9731L13.0368 12.0088Z" fill="white"/>
</g>
</g>
</g>
<defs>
<clipPath id="clip0_113_225">
<rect width="48" height="48" fill="white"/>
</clipPath>
</defs>
</svg>
