<svg  viewBox="0 0 24 16" fill="none" xmlns="http://www.w3.org/2000/svg">
<path id="Vector" d="M23.0536 3.07812C22.841 2.04724 21.8279 1.29651 20.6523 1.06213C18.893 0.734375 15.6371 0.5 12.1143 0.5C8.59366 0.5 5.28561 0.734375 3.52424 1.06213C2.35068 1.29651 1.33555 1.99963 1.12293 3.07812C0.908233 4.25 0.695618 5.89062 0.695618 8C0.695618 10.1094 0.908234 11.75 1.17505 12.9219C1.38974 13.9528 2.4028 14.7035 3.57635 14.9379C5.44403 15.2656 8.64577 15.5 12.1685 15.5C15.6913 15.5 18.893 15.2656 20.7607 14.9379C21.9342 14.7035 22.9473 14.0004 23.162 12.9219C23.3746 11.75 23.6414 10.0618 23.6956 8C23.5872 5.89062 23.3204 4.25 23.0536 3.07812ZM9.23359 11.2812V4.71875L15.7434 8L9.23359 11.2812Z" fill="white" fill-opacity="0.75"/>
</svg>
