<svg width="48" height="48" viewBox="0 0 48 48" fill="none" xmlns="http://www.w3.org/2000/svg">
<g id="youtube 1">
<path id="Vector" d="M46.9227 35.9C46.4439 38 44.409 39.6 41.8953 39.9C37.9451 40.4 31.3616 41 23.9402 41C16.6384 41 10.0549 40.4 5.98504 39.9C3.47132 39.6 1.43641 38 0.957606 35.9C0.478803 33.6 0 30.2 0 26C0 21.8 0.478803 18.4 0.957606 16.1C1.43641 14 3.47132 12.4 5.98504 12.1C9.93516 11.6 16.5187 11 23.9402 11C31.3616 11 37.8254 11.6 41.8953 12.1C44.409 12.4 46.4439 14 46.9227 16.1C47.4015 18.4 48 21.8 48 26C47.8803 30.2 47.4015 33.6 46.9227 35.9Z" fill="#FF3D00"/>
<path id="Vector_2" d="M18 33V19L30 26L18 33Z" fill="white"/>
</g>
</svg>
